<?xml version="1.0" standalone="no"?>
<!DOCTYPE svg PUBLIC "-//W3C//DTD SVG 20010904//EN"
 "http://www.w3.org/TR/2001/REC-SVG-20010904/DTD/svg10.dtd">
<svg version="1.0" xmlns="http://www.w3.org/2000/svg"
 width="1144.000000pt" height="1144.000000pt" viewBox="0 0 1144.000000 1144.000000"
 preserveAspectRatio="xMidYMid meet">
<metadata>
Created by potrace 1.14, written by Peter Selinger 2001-2017
</metadata>
<g transform="translate(0.000000,1144.000000) scale(0.100000,-0.100000)"
fill="#000000" stroke="none">
<path d="M5488 11435 c-2 -2 -43 -6 -93 -9 -49 -4 -101 -8 -115 -10 -14 -2
-48 -7 -75 -10 -28 -4 -63 -9 -80 -12 -16 -3 -43 -7 -60 -9 -16 -2 -55 -9 -85
-15 -30 -6 -66 -13 -80 -15 -14 -2 -52 -11 -85 -21 -33 -9 -67 -16 -75 -16 -8
-1 -21 -5 -28 -11 -7 -5 -15 -7 -19 -4 -3 4 -14 2 -25 -4 -11 -6 -30 -13 -43
-15 -27 -5 -232 -70 -260 -83 -11 -5 -36 -15 -55 -22 -72 -26 -248 -103 -332
-144 -107 -54 -261 -136 -268 -144 -3 -3 -21 -15 -40 -25 -56 -31 -205 -130
-208 -138 -2 -5 -9 -8 -14 -8 -6 0 -18 -7 -27 -15 -9 -9 -45 -37 -81 -63 -36
-25 -67 -49 -70 -52 -3 -3 -45 -38 -93 -78 -112 -94 -275 -248 -363 -344 -140
-153 -279 -330 -387 -493 -36 -55 -71 -105 -77 -112 -5 -7 -10 -15 -10 -18 0
-3 -11 -23 -25 -45 -49 -78 -155 -280 -155 -296 0 -4 -6 -15 -13 -23 -18 -21
-117 -255 -117 -275 0 -9 -4 -16 -8 -16 -5 0 -9 -6 -10 -12 -1 -7 -23 -77 -50
-155 -27 -79 -48 -143 -47 -143 2 0 -4 -21 -12 -47 -8 -27 -17 -59 -20 -73 -7
-35 -8 -40 -21 -85 -6 -22 -13 -53 -16 -70 -3 -16 -7 -41 -10 -55 -14 -62 -17
-78 -22 -116 -2 -23 -6 -50 -8 -61 -2 -10 -7 -46 -11 -78 -4 -33 -9 -69 -11
-80 -25 -134 -25 -722 1 -890 2 -16 7 -50 10 -75 11 -81 14 -104 22 -145 4
-22 8 -44 8 -50 1 -5 5 -26 10 -45 4 -19 9 -46 11 -60 1 -14 10 -52 19 -85 10
-33 18 -67 20 -75 5 -28 26 -105 35 -130 4 -14 18 -59 31 -100 13 -41 26 -79
31 -84 4 -6 8 -18 8 -28 0 -10 4 -26 9 -36 5 -9 21 -48 36 -87 61 -160 199
-440 286 -580 10 -16 22 -37 26 -45 4 -8 11 -19 15 -25 5 -5 27 -39 50 -75 23
-36 45 -66 50 -68 4 -2 8 -9 8 -16 0 -7 9 -21 20 -31 11 -10 20 -24 20 -31 0
-7 3 -14 8 -16 4 -1 37 -41 73 -88 37 -47 75 -95 85 -107 11 -11 35 -41 54
-64 45 -56 288 -302 361 -365 55 -49 156 -132 194 -161 6 -5 30 -24 55 -43 42
-33 189 -136 244 -170 173 -107 199 -122 371 -209 173 -86 329 -152 490 -206
44 -15 87 -29 95 -33 22 -8 22 -8 65 -17 22 -4 52 -14 68 -22 15 -7 27 -10 27
-6 0 4 5 2 10 -3 9 -9 -14 -79 -60 -179 -5 -11 -18 -42 -29 -70 -11 -27 -27
-68 -37 -90 -10 -22 -18 -45 -20 -50 -1 -6 -12 -33 -24 -59 -12 -27 -23 -57
-25 -68 -3 -11 -8 -25 -13 -32 -5 -6 -25 -54 -46 -106 -21 -52 -50 -124 -66
-160 -15 -36 -52 -126 -81 -200 -30 -74 -56 -137 -59 -140 -3 -3 -6 -12 -8
-20 -2 -8 -10 -31 -19 -50 -10 -19 -18 -39 -19 -45 -1 -5 -8 -23 -15 -40 -7
-16 -13 -32 -14 -35 -3 -8 -17 -43 -35 -85 -39 -92 -65 -160 -62 -167 1 -5 -2
-8 -7 -8 -5 0 -12 -12 -16 -28 -3 -15 -17 -50 -30 -77 -13 -28 -29 -70 -37
-93 -7 -23 -16 -42 -20 -42 -5 0 -8 -6 -8 -13 0 -12 -16 -53 -125 -317 -51
-125 -67 -164 -66 -167 0 -2 -21 -51 -58 -138 -22 -49 -66 -160 -66 -165 0 -3
-3 -9 -7 -15 -3 -5 -25 -57 -48 -115 -23 -58 -47 -116 -53 -130 -5 -14 -11
-27 -11 -30 -1 -3 -5 -11 -10 -18 -11 -17 4 -33 56 -60 24 -13 72 -41 107 -62
34 -22 67 -40 71 -40 5 0 10 -3 12 -7 1 -5 26 -19 53 -32 28 -14 52 -27 55
-30 6 -7 142 -76 150 -76 3 -1 16 -7 30 -15 14 -8 30 -15 35 -16 6 -1 33 -13
60 -25 28 -13 52 -24 55 -24 3 -1 16 -6 30 -12 14 -6 45 -19 70 -28 25 -9 54
-21 65 -25 56 -23 135 -49 135 -44 0 4 6 2 12 -4 13 -9 71 -25 84 -22 4 1 10
-2 13 -7 5 -7 133 -43 206 -58 19 -4 37 -8 95 -21 14 -3 36 -7 50 -10 128 -24
127 -24 245 -40 160 -21 285 -28 530 -28 201 0 386 8 444 19 10 2 40 6 67 9
73 9 107 14 131 20 11 2 43 8 70 12 50 8 58 10 71 14 4 1 10 2 13 2 4 -1 77
17 163 38 225 57 488 149 666 232 103 48 262 129 302 155 21 12 40 23 43 23 3
0 31 16 61 35 30 19 58 35 63 35 4 0 16 9 26 20 10 11 24 20 32 20 7 0 13 5
13 10 0 6 7 10 15 10 8 0 15 5 15 10 0 6 7 10 15 10 8 0 15 5 15 10 0 6 6 10
14 10 8 0 16 3 18 8 2 4 35 30 73 57 77 54 99 71 127 98 10 9 22 17 27 17 5 0
11 3 13 8 2 4 32 32 68 62 35 30 76 66 91 80 14 14 66 64 115 111 99 95 216
223 279 304 11 14 27 33 35 42 16 17 135 175 160 213 8 12 23 33 33 45 9 13
17 26 17 30 0 3 11 21 24 38 64 87 214 359 284 517 11 25 30 68 42 95 22 49
80 200 84 220 1 6 4 15 8 20 5 9 44 128 53 165 2 8 17 65 34 125 16 61 34 135
40 165 6 30 14 66 17 80 3 14 7 34 9 45 18 107 27 166 30 195 2 19 6 51 9 70
26 157 27 728 2 887 -2 15 -7 55 -11 88 -10 79 -12 94 -20 135 -3 19 -8 46
-10 60 -7 45 -25 131 -29 138 -2 4 -7 23 -10 42 -3 19 -10 50 -15 68 -5 18
-10 33 -10 35 0 1 -2 9 -4 17 -3 8 -13 44 -22 80 -86 324 -282 754 -481 1055
-113 171 -146 218 -176 250 -15 17 -28 35 -28 42 0 6 -4 13 -9 15 -4 2 -32 32
-61 68 -30 36 -65 78 -79 94 -43 49 -324 329 -356 356 -17 13 -60 49 -97 80
-36 30 -87 71 -112 90 -26 19 -52 40 -59 45 -54 43 -233 160 -362 236 -218
128 -554 280 -738 334 -32 9 -57 19 -57 21 0 6 115 295 156 389 7 17 33 82 58
145 47 117 51 125 81 194 9 21 18 44 19 50 2 6 9 25 16 41 27 62 40 94 93 225
30 74 59 146 65 160 12 28 25 63 26 70 1 3 6 14 12 25 6 11 21 47 34 80 13 33
27 64 32 70 4 5 8 18 8 30 0 12 6 27 13 34 6 6 12 15 12 19 0 7 37 102 61 157
7 17 33 80 57 140 78 192 179 439 192 470 24 56 70 170 71 175 0 3 5 16 11 30
6 14 32 77 58 140 26 63 53 129 60 145 7 17 20 49 30 73 11 25 15 46 9 51 -21
20 -287 192 -374 243 -129 75 -270 148 -286 148 -8 0 -14 5 -14 10 0 6 -9 10
-20 10 -11 0 -20 3 -20 8 0 4 -15 12 -32 18 -18 6 -76 29 -128 51 -52 22 -124
50 -160 62 -36 12 -74 26 -85 31 -11 4 -38 13 -60 19 -22 6 -71 20 -110 31
-99 30 -136 39 -165 45 -39 6 -70 14 -93 21 -11 3 -34 8 -51 10 -17 2 -51 7
-76 13 -25 5 -65 12 -90 15 -25 3 -54 7 -65 10 -11 2 -54 7 -95 11 -41 5 -91
10 -110 12 -42 5 -567 12 -572 8z"/>
</g>
</svg>
