<?xml version="1.0" encoding="UTF-8"?><svg id="_レイヤー_2" xmlns="http://www.w3.org/2000/svg" viewBox="0 0 509.85 143.33"><defs><style>.cls-1{fill:none;stroke-width:6px;}.cls-1,.cls-2{stroke:#3890b2;stroke-miterlimit:10;}.cls-3{fill:#b7f1f7;}.cls-4{fill:#6ecfe5;}.cls-2{fill:#3890b2;}</style></defs><g id="_レイヤー_1-2"><g><path class="cls-2" d="M138.17,2.39l29.05,61.67h.38L196.64,2.39h29.8l-45.64,82.99v54.7h-27.54v-54.7L107.62,2.39h30.55Z"/><path class="cls-2" d="M270.76,2.39V92.54c0,9.81,1.98,16.88,5.94,21.22s10.15,6.51,18.58,6.51,14.62-2.17,18.58-6.51c3.96-4.34,5.94-11.41,5.94-21.22V2.39h26.03V91.03c0,33.95-16.98,50.92-50.92,50.92s-50.92-16.97-50.92-50.92V2.39h26.78Z"/><path class="cls-2" d="M369.97,140.07V2.39h28.86V140.07h-28.86Z"/><path class="cls-2" d="M504.45,31.24c-12.83-6.66-25.72-10-38.66-10-6.29,0-11.07,1.45-14.33,4.34-3.27,2.89-4.9,6.92-4.9,12.07,0,9.05,5.85,15.53,17.54,19.43,16.97,5.41,28.76,11.57,35.36,18.48,6.6,6.92,9.9,15.84,9.9,26.78,0,26.4-16.22,39.61-48.66,39.61-13.71,0-26.15-3.02-37.34-9.05v-23.58c11.19,7.67,23.01,11.51,35.46,11.51,15.97,0,23.95-6.04,23.95-18.11,0-4.9-1.51-8.96-4.53-12.17-3.02-3.21-8.11-6.06-15.28-8.58-15.09-5.03-26-11.13-32.72-18.29-6.73-7.17-10.09-15.84-10.09-26.03,0-11.44,3.83-20.49,11.51-27.16,7.67-6.66,18.42-10,32.25-10,14.84,0,28.35,2.52,40.55,7.54V31.24Z"/></g><g><g><path class="cls-3" d="M90.72,71.74c3.5,6.55,5.5,14.03,5.5,21.98,0,25.74-20.87,46.61-46.61,46.61-8.77,0-16.97-2.42-23.98-6.63l15.55-38.09c2.73,.51,5.55,.77,8.43,.77,.15,0,.29,0,.44,0,.08,0,.15,0,.22,0,.12,0,.23,0,.34-.02,.11,0,.22-.01,.33-.01,13.3-.36,23.97-11.22,23.97-24.61,0-10.1-6.08-18.76-14.78-22.56l.33-.79c13.1,3.13,24.05,11.77,30.26,23.35Z"/><path class="cls-4" d="M50.05,47.12c-13.5,.12-24.41,11.09-24.41,24.62,0,10.53,6.6,19.5,15.88,23.03l-.34,.84c-14.17-2.58-26.1-11.57-32.68-23.87-3.51-6.54-5.5-14.02-5.5-21.97C3,24.03,23.86,3.16,49.61,3.16c9.65,0,18.62,2.93,26.06,7.96l-15.21,37.27c-3.07-.73-6.25-1.16-9.52-1.25-.22-.01-.44-.03-.67-.03-.07,0-.14,.01-.22,.01Z"/><path class="cls-4" d="M60.13,49.18c8.7,3.8,14.78,12.46,14.78,22.56,0,13.39-10.67,24.25-23.97,24.61-.11,0-.22,.01-.33,.01-.19,.01-.37,.01-.56,.01-3-.03-5.88-.59-8.53-1.6l18.61-45.59Z"/><path class="cls-3" d="M60.13,49.18l-18.61,45.59c-9.28-3.53-15.88-12.5-15.88-23.03,0-13.53,10.91-24.5,24.41-24.62,.3,0,.59,.01,.89,.02,3.26,.09,6.36,.81,9.19,2.04Z"/></g><g><path class="cls-1" d="M8.5,71.74c-3.51-6.54-5.5-14.02-5.5-21.97C3,24.03,23.86,3.16,49.61,3.16c9.65,0,18.62,2.93,26.06,7.96l-15.21,37.27-.33,.79-18.61,45.59-.34,.84-15.55,38.09c7.01,4.21,15.21,6.63,23.98,6.63,25.74,0,46.61-20.87,46.61-46.61,0-7.95-2-15.43-5.5-21.98"/><path class="cls-1" d="M50.94,47.14c3.27,.09,6.45,.52,9.52,1.25,13.1,3.13,24.05,11.77,30.26,23.35"/><path class="cls-1" d="M49.61,47.11c.15,0,.29,.01,.44,.01"/><path class="cls-1" d="M50.05,96.37c-.15,0-.29,0-.44,0-2.88,0-5.7-.26-8.43-.77-14.17-2.58-26.1-11.57-32.68-23.87"/><path class="cls-1" d="M50.94,47.14c-.22-.01-.44-.03-.67-.03-.07,0-.14,.01-.22,.01"/><path class="cls-1" d="M50.05,96.37c.08,0,.15,0,.22,0,.12,0,.23,0,.34-.02"/><path class="cls-1" d="M50.94,96.35c13.3-.36,23.97-11.22,23.97-24.61,0-10.1-6.08-18.76-14.78-22.56-2.83-1.23-5.93-1.95-9.19-2.04-.3-.01-.59-.02-.89-.02-13.5,.12-24.41,11.09-24.41,24.62,0,10.53,6.6,19.5,15.88,23.03,2.65,1.01,5.53,1.57,8.53,1.6,.19,0,.37,0,.56-.01,.11,0,.22-.01,.33-.01Z"/></g></g></g></svg>